<?xml version="1.0" encoding="utf-8"?>
<!-- Generator: Adobe Illustrator 25.0.0, SVG Export Plug-In . SVG Version: 6.00 Build 0)  -->
<svg version="1.1" id="Layer_1" xmlns="http://www.w3.org/2000/svg" xmlns:xlink="http://www.w3.org/1999/xlink" x="0px" y="0px"
	 viewBox="0 0 1280 497.9" style="enable-background:new 0 0 1280 497.9;" xml:space="preserve">
<style type="text/css">
	.st0{fill:#FFFFFF;}
	.st1{fill:#F68815;}
</style>
<desc>Created with Fabric.js 3.6.3</desc>
<rect x="0" y="0" width="1280" height="497.8"/>
<path class="st0" d="M529.6,228.9c-3.1-5.9-7.6-10.6-13.4-14.3c-5.8-3.6-12.5-6.3-20.2-8c-7.6-1.7-16.2-2.6-25.8-2.6h-67v17.2h15.6
	V278h-15.6v18.6H472c9.5,0,18-1,25.6-2.9c7.6-1.9,14.1-4.8,19.6-8.5c5.5-3.8,9.7-8.7,12.6-14.7c3-6,4.4-13,4.4-20.9
	C534.3,241.7,532.7,234.8,529.6,228.9z M499.4,262.2c-0.8,3.4-2.3,6.3-4.4,8.8c-2.1,2.5-5,4.2-8.6,5.3c-3.6,1.1-8.3,1.6-13.8,1.6
	h-22.9v-56.7h21.1c11,0,18.7,2.3,23.2,6.8c4.5,4.5,6.7,11.7,6.7,21.5C500.7,254.6,500.3,258.8,499.4,262.2z"/>
<path class="st0" d="M662.1,278.1l-45.3-78.7l-19.4,5l-46.4,73.7h-18.9v18.6h55.6v-18.6h-9l3.7-6.4h39.8l3.3,6.4h-7.2v18.6h55.5
	v-18.6H662.1z M592.6,254.6l11.3-18.7l9.6,18.7H592.6z"/>
<path class="st0" d="M705.6,297.3h-20.7v-37.6h20.7v5.4c0,2.9,1.2,5.5,3.6,7.6c2.4,2.1,5.6,3.7,9.6,4.8c4,1.1,8,1.8,12,2.3
	c4,0.5,8.3,0.7,12.7,0.7l0,0c2.4,0,4.8-0.2,7.2-0.5c2.4-0.3,4.7-0.8,6.9-1.4c2.2-0.6,4-1.5,5.4-2.7c1.4-1.2,2.1-2.5,2.1-4.1l0,0
	c0-1.3-0.2-2.3-0.7-3.2c-0.5-0.9-1.2-1.6-2.4-2.2c-1.1-0.6-2.3-1.1-3.6-1.4c-1.3-0.3-3-0.6-5.3-0.9c-2.2-0.2-4.4-0.4-6.4-0.6
	c-2.1-0.1-4.7-0.4-8-0.7c-3.3-0.3-6.3-0.6-9.1-1l0,0c-1.9-0.2-3.9-0.6-5.8-0.9c-1.9-0.4-4.4-0.9-7.3-1.7c-2.9-0.8-5.6-1.7-8.1-2.7
	c-2.5-1-5-2.3-7.7-3.9c-2.6-1.6-4.9-3.4-6.7-5.3c-1.8-1.9-3.3-4.3-4.5-7s-1.8-5.7-1.8-8.9l0,0c0-4,0.7-7.7,2.2-11.1s3.5-6.2,6.1-8.4
	c2.6-2.2,5.5-4.2,8.6-5.8c3.2-1.6,6.6-2.9,10.5-3.8c3.8-0.9,7.5-1.5,11-2c3.6-0.4,7.1-0.6,10.7-0.6l0,0c6.7,0,13.7,1,21,3
	c7.3,2,12.8,4.3,16.6,7l0,0v-7.3h20.6v36h-20.6v-5.3c0-2.3-1.1-4.4-3.3-6.2c-2.2-1.9-5.1-3.3-8.5-4.4c-3.5-1.1-7.1-1.9-11-2.5
	c-3.8-0.6-7.5-0.8-11.1-0.8l0,0c-8.4,0-14.2,0.6-17.3,1.8c-3.1,1.2-4.7,3.6-4.7,7.3l0,0c0,0.8,0.3,1.5,0.8,2.1
	c0.5,0.6,1.4,1.1,2.7,1.5c1.2,0.4,2.4,0.7,3.4,0.9c1,0.2,2.5,0.5,4.5,0.8l0,0c2.6,0.5,5.9,1,9.9,1.4c4,0.4,7.7,0.8,11,1.1
	c3.3,0.3,6.9,0.8,10.9,1.5c4,0.7,7.6,1.5,10.7,2.4c3.2,0.9,6.3,2.2,9.4,3.8c3.1,1.7,5.7,3.6,7.7,5.8c2,2.2,3.7,5.1,4.9,8.5
	c1.3,3.4,1.9,7.3,1.9,11.6l0,0c0,9.5-4.6,16.9-13.8,22.3c-9.2,5.3-23,8-41.3,8l0,0c-7.2,0-13.9-0.6-20.1-1.8
	c-6.2-1.2-11.3-2.8-15.2-4.9l0,0V297.3z"/>
<path class="st0" d="M966.2,228.9c-3.2-5.9-7.6-10.6-13.4-14.3c-5.8-3.6-12.5-6.3-20.2-8c-7.7-1.7-16.3-2.6-25.8-2.6h-67v17.2h15.6
	V278h-15.6v18.6h68.8c9.5,0,18-1,25.6-2.9c7.6-1.9,14.1-4.8,19.6-8.5c5.5-3.8,9.7-8.7,12.6-14.7c2.9-6,4.4-13,4.4-20.9
	C970.9,241.7,969.3,234.8,966.2,228.9z M936,262.2c-0.9,3.4-2.3,6.3-4.4,8.8c-2.1,2.5-5,4.2-8.6,5.3c-3.6,1.1-8.3,1.6-13.8,1.6
	h-22.9v-56.7h21.1c11,0,18.7,2.3,23.2,6.8c4.5,4.5,6.7,11.7,6.7,21.5C937.3,254.6,936.9,258.8,936,262.2z"/>
<polygon class="st0" points="1096.6,296.7 979.8,296.7 979.8,278.1 995.3,278.1 995.3,221.2 979.8,221.2 979.8,204 1096.6,204 
	1096.6,240 1076,240 1076,221.2 1026.3,221.2 1026.3,240.5 1060.5,240.5 1060.5,257.8 1026.3,257.8 1026.3,278.1 1076,278.1 
	1076,260.6 1096.6,260.6 "/>
<polygon class="st0" points="1119.1,221.4 1107.1,221.4 1107.1,204.2 1162.6,204.2 1162.6,221.4 1155.6,221.4 1180.6,264.8 
	1203.8,221.4 1193.3,221.4 1193.3,204.2 1248.9,204.2 1248.9,221.4 1231,221.4 1186.9,296.8 1167.6,296.8 "/>
<g id="logo-logo" transform="matrix(1.1720121981794878 0 0 1.172012198179488 212.72081608341148 496.61256565279956)">
	<g>
		<g transform="matrix(0.18909075947940396 0 0 -0.18909075947940396 89.75202353227883 -15.824722024692107)">
			<path class="st1" d="M288.7,1278.8l-577.3-48.5V1152l577.3-56.8V1278.8"/>
		</g>
		<g transform="matrix(0.18909075947940396 0 0 -0.18909075947940396 -89.58685275387361 -15.824722024692107)">
			<path class="st1" d="M-289.5,1278.8v-183.6l579.1,56.9v78L-289.5,1278.8"/>
		</g>
		<g transform="matrix(0.18909075947940396 0 0 -0.18909075947940396 1.2279553920592434 72.40010998865131)">
			<path class="st0" d="M192.7,1520.8h-2.4v-175.3l91.5-158.5L140.9,943h-281.8l-140.9,244l91.5,158.4v175.3h-2.4L-385.4,1187
				l192.7-333.8h385.4L385.4,1187L192.7,1520.8"/>
		</g>
		<g transform="matrix(0.18909075947940396 0 0 -0.18909075947940396 1.2272935744010738 56.19115554069708)">
			<path class="st0" d="M-79.6,1150.9v156c0,44,35.7,79.6,79.6,79.6h0c44,0,79.6-35.7,79.6-79.6v-156H-79.6z M155,1483.1h-312.1
				V952.6l35.6-61.7h41.8v130.7c0,44,35.7,79.6,79.6,79.6l0,0c44,0,79.6-35.7,79.6-79.6V890.9h41.8l35.6,61.7v530.5H155"/>
		</g>
		<g transform="matrix(0.18909075947940396 0 0 -0.18909075947940396 -21.356477647882343 -16.992924736755867)">
			<path class="st0" d="M-37.6,1244.4v-114.7h75.3v114.7H-37.6"/>
		</g>
		<g transform="matrix(0.18909075947940396 0 0 -0.18909075947940396 1.228428118957936 -16.992924736755867)">
			<path class="st0" d="M-38.8,1244.4v-114.7h77.6v114.7H-38.8"/>
		</g>
		<g transform="matrix(0.18909075947940396 0 0 -0.18909075947940396 23.81068661516548 -16.992924736755867)">
			<path class="st0" d="M-37.6,1129.7h75.2v114.7h-75.2V1129.7"/>
		</g>
		<g transform="matrix(0.18909075947940396 0 0 -0.18909075947940396 1.6664568632920123 -84.35735870971118)">
			<path class="st0" d="M157.4,916.5l-9.2,66.8l-67.9,133l-56.7,25.7L0,1457.6l-23.6-315.6l-56.7-25.7l-67.9-133l-9.2-66.8H0H157.4"
				/>
		</g>
	</g>
</g>
</svg>
